<?xml version="1.0" standalone="no"?>
<!DOCTYPE svg PUBLIC "-//W3C//DTD SVG 20010904//EN"
 "http://www.w3.org/TR/2001/REC-SVG-20010904/DTD/svg10.dtd">
<svg version="1.0" xmlns="http://www.w3.org/2000/svg"
 width="706.000000pt" height="353.000000pt" viewBox="0 0 706.000000 353.000000"
 preserveAspectRatio="xMidYMid meet">

<g transform="translate(0.000000,353.000000) scale(0.100000,-0.100000)"
fill="#000000" stroke="none">
<path d="M4587 2741 l-248 -249 96 -88 c53 -49 103 -91 112 -92 8 -2 77 58
162 142 81 80 152 146 158 146 6 0 42 -34 80 -76 101 -113 218 -213 241 -207
10 2 59 44 107 93 l88 88 -248 246 c-199 198 -252 246 -274 246 -21 0 -76 -51
-274 -249z"/>
<path d="M502 1288 l3 -783 183 -3 182 -2 0 785 0 785 -185 0 -185 0 2 -782z"/>
<path d="M1090 1915 l0 -155 260 0 260 0 0 -630 0 -630 185 0 185 0 2 628 3
627 263 3 262 2 0 155 0 155 -710 0 -710 0 0 -155z"/>
<path d="M3175 2056 c-115 -17 -156 -28 -249 -71 -97 -44 -162 -105 -206 -192
-31 -60 -35 -79 -38 -164 -7 -158 32 -247 143 -331 93 -71 196 -104 559 -182
140 -30 201 -57 227 -100 25 -41 24 -76 -4 -117 -62 -93 -241 -121 -420 -67
-72 22 -146 77 -173 129 l-15 29 -184 0 -185 0 0 -23 c0 -33 35 -132 65 -182
38 -65 128 -149 202 -188 237 -124 647 -126 876 -4 72 38 150 122 189 204 51
108 48 273 -7 368 -29 51 -110 127 -161 153 -49 25 -166 57 -416 117 -112 26
-220 58 -250 73 -93 47 -110 129 -42 198 43 42 115 64 214 64 134 0 238 -48
280 -130 l20 -40 180 0 180 0 -6 28 c-25 113 -81 218 -150 282 -57 52 -188
116 -279 135 -104 21 -247 26 -350 11z"/>
<path d="M4310 1285 l0 -785 185 0 185 0 0 785 0 785 -185 0 -185 0 0 -785z"/>
<path d="M5070 1285 l0 -785 180 0 180 0 0 496 c0 288 4 494 9 492 10 -3 110
-125 201 -243 30 -39 87 -111 125 -159 39 -48 117 -147 175 -219 57 -73 110
-139 116 -147 7 -8 49 -61 93 -118 l82 -102 177 2 177 3 0 780 0 780 -185 0
-185 0 -2 -465 c-1 -256 -2 -480 -2 -498 l-1 -32 -53 62 c-29 35 -78 97 -109
138 -136 180 -322 419 -366 470 -26 30 -60 74 -76 97 -15 23 -64 85 -107 138
l-79 95 -175 0 -175 0 0 -785z"/>
</g>
</svg>
